# Created by FreeCAD <https://www.freecad.org>
v 49.000000 -29.500000 0.000000
v 49.000000 29.500000 0.000000
v 49.000000 -29.500000 25.000000
v 49.000000 29.500000 25.000000
v -49.000000 -29.500000 0.000000
v -49.000000 -29.500000 25.000000
v -49.000000 29.500000 0.000000
v -49.000000 29.500000 25.000000
v -47.500000 -28.000000 25.000000
v -47.500000 28.000000 25.000000
v 47.500000 -28.000000 25.000000
v 47.500000 28.000000 25.000000
v 47.500000 -28.000000 15.500000
v 47.500000 28.000000 15.500000
v 47.500000 28.000000 13.500000
v 46.500000 28.000000 13.500000
v 47.500000 28.000000 1.000000
v 46.500000 28.000000 15.500000
v -47.500000 28.000000 1.000000
v -46.500000 28.000000 13.500000
v -47.500000 28.000000 13.500000
v -46.500000 28.000000 15.500000
v -47.500000 28.000000 15.500000
v -47.500000 -28.000000 15.500000
v -47.500000 -28.000000 13.500000
v -46.500000 -28.000000 13.500000
v -47.500000 -28.000000 1.000000
v -46.500000 -28.000000 15.500000
v 47.500000 -28.000000 1.000000
v 46.500000 -28.000000 13.500000
v 47.500000 -28.000000 13.500000
v 46.500000 -28.000000 15.500000
vn 1.000000 0.000000 0.000000
vn 1.000000 -0.000000 0.000000
vn 0.000000 -1.000000 0.000000
vn 0.000000 -1.000000 0.000000
vn 0.000000 1.000000 -0.000000
vn 0.000000 1.000000 0.000000
vn 0.000000 0.000000 -1.000000
vn 0.000000 0.000000 -1.000000
vn 0.000000 0.000000 1.000000
vn 0.000000 0.000000 1.000000
vn 0.000000 0.000000 1.000000
vn 0.000000 0.000000 1.000000
vn 0.000000 0.000000 1.000000
vn 0.000000 0.000000 1.000000
vn 0.000000 0.000000 1.000000
vn 0.000000 0.000000 1.000000
vn -1.000000 0.000000 0.000000
vn -1.000000 -0.000000 0.000000
vn -1.000000 0.000000 0.000000
vn -1.000000 0.000000 0.000000
vn -0.000000 -1.000000 -0.000000
vn 0.000000 -1.000000 0.000000
vn 0.000000 -1.000000 -0.000000
vn -0.000000 -1.000000 0.000000
vn -0.000000 -1.000000 0.000000
vn -0.000000 -1.000000 -0.000000
vn 0.000000 -1.000000 0.000000
vn 0.000000 -1.000000 0.000000
vn -0.000000 -1.000000 0.000000
vn 0.000000 -1.000000 0.000000
vn 1.000000 0.000000 0.000000
vn 1.000000 0.000000 0.000000
vn -0.000000 1.000000 0.000000
vn 0.000000 1.000000 0.000000
vn 0.000000 1.000000 0.000000
vn -0.000000 1.000000 0.000000
vn -0.000000 1.000000 0.000000
vn -0.000000 1.000000 0.000000
vn 0.000000 1.000000 0.000000
vn 0.000000 1.000000 0.000000
vn -0.000000 1.000000 0.000000
vn 0.000000 1.000000 0.000000
vn 0.000000 -0.000000 1.000000
vn 0.000000 0.000000 1.000000
vn -0.000000 0.000000 1.000000
vn 0.000000 0.000000 1.000000
vn 1.000000 0.000000 0.000000
vn 1.000000 -0.000000 0.000000
vn 0.000000 0.000000 -1.000000
vn 0.000000 0.000000 -1.000000
vn 1.000000 0.000000 0.000000
vn 1.000000 0.000000 0.000000
vn 0.000000 0.000000 1.000000
vn 0.000000 0.000000 1.000000
vn -1.000000 0.000000 0.000000
vn -1.000000 0.000000 0.000000
vn -0.000000 -0.000000 -1.000000
vn 0.000000 0.000000 -1.000000
vn -1.000000 0.000000 0.000000
vn -1.000000 0.000000 0.000000
f 1//1 2//1 3//1
f 3//2 2//2 4//2
f 5//3 1//3 6//3
f 6//4 1//4 3//4
f 2//5 7//5 4//5
f 4//6 7//6 8//6
f 7//7 2//7 5//7
f 5//8 2//8 1//8
f 8//9 9//9 10//9
f 8//10 6//10 9//10
f 3//11 9//11 6//11
f 11//12 9//12 3//12
f 12//13 11//13 3//13
f 4//14 12//14 3//14
f 4//15 8//15 10//15
f 4//16 10//16 12//16
f 7//17 5//17 8//17
f 8//18 5//18 6//18
f 11//19 12//19 13//19
f 13//20 12//20 14//20
f 15//21 16//21 17//21
f 14//22 12//22 18//22
f 16//23 19//23 17//23
f 16//24 20//24 19//24
f 20//25 21//25 19//25
f 18//26 22//26 16//26
f 16//27 22//27 20//27
f 22//28 10//28 23//28
f 12//29 10//29 18//29
f 18//30 10//30 22//30
f 10//31 9//31 23//31
f 23//32 9//32 24//32
f 25//33 26//33 27//33
f 24//34 9//34 28//34
f 26//35 29//35 27//35
f 26//36 30//36 29//36
f 30//37 31//37 29//37
f 28//38 32//38 26//38
f 26//39 32//39 30//39
f 32//40 11//40 13//40
f 9//41 11//41 28//41
f 28//42 11//42 32//42
f 13//43 14//43 32//43
f 32//44 14//44 18//44
f 23//45 24//45 22//45
f 22//46 24//46 28//46
f 28//47 26//47 20//47
f 28//48 20//48 22//48
f 25//49 21//49 26//49
f 26//50 21//50 20//50
f 21//51 25//51 19//51
f 19//52 25//52 27//52
f 17//53 19//53 27//53
f 17//54 27//54 29//54
f 31//55 15//55 29//55
f 29//56 15//56 17//56
f 15//57 31//57 16//57
f 16//58 31//58 30//58
f 16//59 32//59 18//59
f 30//60 32//60 16//60
